<?xml version="1.0" encoding="utf-8"?>
<!-- Generator: Adobe Illustrator 23.0.2, SVG Export Plug-In . SVG Version: 6.00 Build 0)  -->
<svg version="1.1" id="Capa_1" xmlns="http://www.w3.org/2000/svg" xmlns:xlink="http://www.w3.org/1999/xlink" x="0px" y="0px"
	 viewBox="0 0 291.1 84.1" style="enable-background:new 0 0 291.1 84.1;" xml:space="preserve">
<style type="text/css">
	.st0{fill:#5FBDFF;}
</style>
<g>
	<path class="st0" d="M8.9,2.5c4.8,0,7,3.3,7,10V52h11.9c6.7,0,10,2.1,10,6.5c0,4.4-3.3,6.5-10,6.5H11.4c-7.5,0-9.5-2.2-9.5-8.9
		V12.5C1.9,5.8,4.1,2.5,8.9,2.5z"/>
	<path class="st0" d="M58.6,66.6c-11.5,0-20-4.9-20-9.9c0-3.7,2.6-6.3,6.9-6.3c3.7,0,8.8,3.1,15,3.1c3.9,0,6.9-2.7,6.9-6.3
		c0-4.9-4.1-6.5-10.8-8.5c-11.9-3.6-17.4-7.9-17.4-17.5c0-11.1,8.8-19.5,22.4-19.5c10.2,0,16.8,4.2,16.8,9.1c0,3.6-2.3,6-6.3,6
		c-3.4,0-7.3-2.2-11-2.2c-4.3,0-6.9,2.3-6.9,5.3c0,4.4,4.2,4.9,11.2,7.3c11.5,3.8,17,9.5,17,18.7C82.5,57.9,73.3,66.6,58.6,66.6z"/>
	<path class="st0" d="M86.7,34.2C86.7,14.4,100,1.6,117,1.6c10.9,0,18.5,4.9,18.5,9.9c0,3.3-2.7,6.3-6,6.3c-3.2,0-7.3-2.4-12.4-2.4
		c-9,0-15.2,7.3-15.2,19.2c0,11.5,6.2,18.7,15.6,18.7c5.9,0,9.8-3.2,13.1-3.2c2.9,0,5.6,2.9,5.6,6.2c0,5.5-7.8,10.7-19.4,10.7
		C99,66.8,86.7,54.1,86.7,34.2z"/>
	<path class="st0" d="M159.2,66c-11.2,0-20.7-9.8-20.7-24.1c0-13.9,9.6-24.2,21.3-24.2c4.7,0,8.2,1.6,10.9,4.9
		c1.6-2.8,3.7-4.3,6.5-4.3c4.7,0,6.8,3.2,6.8,9.9v27.5c0,6.7-2.2,10-6.8,10c-3,0-5-1.5-6.5-4.8C167.9,64.2,163.9,66,159.2,66z
		 M161.5,52.9c5,0,8.8-4.4,8.8-11.2c0-6.7-3.8-10.9-8.8-10.9s-8.9,4.2-8.9,10.9C152.6,48.7,156.4,52.9,161.5,52.9z"/>
	<path class="st0" d="M200.3,84.1c-4.7,0-6.9-3.3-6.9-10v-46c0-6.7,2.2-9.9,6.9-9.9c2.7,0,4.9,1.4,6.5,4.3c2.8-3,6.6-4.7,11.3-4.7
		c11.5,0,20.8,10,20.8,24c0,13.8-9.5,24.6-21,24.6c-4.2,0-7.6-1.3-10.8-4v11.6C207.1,80.8,204.9,84.1,200.3,84.1z M215.9,53.7
		c5.2,0,9-4.5,9-11.6c0-6.9-4-11.5-9-11.5c-5,0-9,4.3-9,11.5C206.8,49.3,210.7,53.7,215.9,53.7z"/>
	<path class="st0" d="M252.5,84.1c-4.7,0-6.9-3.3-6.9-10v-46c0-6.7,2.2-9.9,6.9-9.9c2.7,0,4.9,1.4,6.5,4.3c2.8-3,6.6-4.7,11.3-4.7
		c11.5,0,20.8,10,20.8,24c0,13.8-9.5,24.6-21,24.6c-4.2,0-7.6-1.3-10.8-4v11.6C259.3,80.8,257.2,84.1,252.5,84.1z M268.1,53.7
		c5.2,0,9-4.5,9-11.6c0-6.9-4-11.5-9-11.5s-9,4.3-9,11.5C259.1,49.3,262.9,53.7,268.1,53.7z"/>
</g>
</svg>
