<?xml version="1.0" encoding="utf-8"?>
<!-- Generator: Adobe Illustrator 23.0.2, SVG Export Plug-In . SVG Version: 6.00 Build 0)  -->
<svg version="1.1" id="Capa_1" xmlns="http://www.w3.org/2000/svg" xmlns:xlink="http://www.w3.org/1999/xlink" x="0px" y="0px"
	 viewBox="0 0 291.1 189.3" style="enable-background:new 0 0 291.1 189.3;" xml:space="preserve">
<style type="text/css">
	.st0{fill:#64C0FE;}
	.st1{fill:#FFFFFF;}
</style>
<g>
	<path class="st0" d="M46,143.6c-1.5-1-3-1.5-4.5-2.2c-2.8-1.4-5.5-2.8-8-4.5c-0.9-0.6-1.5-0.6-2.4,0.3c-4.9,5.2-14.3,3.8-16.4-3.9
		c-1.9-6.9,3.6-12.5,9-12.2c1.7,0.1,3.3,0.8,5,0.7c5.6-0.5,11.2-1.4,17.2-2.4c-1.9-1.4-3.6-2.5-5.2-3.7c-3.4-2.4-6.3-5.4-8.8-8.7
		c-0.9-1.2-1.8-1.2-3.1-0.8c-7.5,2.3-14.6,1.4-20.7-3.7C-3.4,93-2.5,76,9.9,67.7c4.2-2.8,8.8-4,13.8-3.6c1,0.1,1.3-0.3,1.6-1.1
		c2.3-7.2,5.8-13.7,10.4-19.6c8.9-11.5,20.1-19.8,33.6-25.2c5.5-2.2,11.2-3.8,17.1-4.7c5.5-0.8,11.1-1.2,16.7-0.4
		c2.6,0.4,5.2,0.6,7.7,1.2c1,0.2,1.4-0.2,1.8-1.1c3.2-6.8,8.5-11.3,15.9-12.5c9.4-1.5,17.4,1.9,22.5,10.2c5.5,8.9,3.6,20.6-4.3,27.4
		c-2.5,2.1-2.4,2.1-1.2,5.2c1.6,4,2.4,8.2,2.8,12.5c0.1,0.6,0.1,1.2,0.2,1.8c0.6-0.1,0.9-0.5,1.2-0.9c2.9-3.9,5.7-7.9,8.6-11.8
		c0.7-0.9,0.6-2,1-3c1.2-3.3,4.5-7,10.6-6.4c3.4,0.3,7.2,3.6,8,7.2c1.1,5-1.5,9.8-6.4,11.4c-1.5,0.5-2,1.2-1.8,2.7
		c0.8,9.3-0.7,18.4-3.8,27.2c-1.6,4.4-3.7,8.6-6.3,12.5c-0.5,0.7-0.7,1.4-0.2,2.2c5,8.8,4.8,17.8,0.6,26.8
		c-2.9,6.3-7.3,11.4-12.3,16c-6.4,6-13.8,10.6-21.7,14.3c-8.1,3.8-16.5,6.4-25.5,6.5c-2.9,0.1-5.9-0.3-8.7-1
		c-0.8-0.2-1.5-0.2-2.2,0.5c-5.9,5.9-11.5,6.7-19,2.8c-4.1-2.1-7.5-5.2-11.2-7.8c-2.6-1.8-5.2-3.5-8.2-4.4
		c-9.2-2.7-19.4,1.8-21.9,11.8c-1.3,5.3-0.5,10.4,2.3,15.2c0.7,1.3,1.7,2.5,1.6,4.1c-0.1,1.6-1.1,3.1-2.4,3.6
		c-1.6,0.6-3.7,0.1-4.6-1.2c-4.6-6.9-6.9-14.3-4.9-22.6c2-8.6,7.3-14.5,15.4-18C39.4,144.3,42.7,144.3,46,143.6z M97.3,121.4
		c5.6-0.1,11.2-1.5,15.6-6.2c5.2-5.5,7-18.1-3.3-23.9c-2.4-1.3-4.9-2.4-7.5-3.2c-2.1-0.7-4.4-1.2-6.4-2.3c-1.5-0.8-2.3-2-2.3-3.7
		c0.1-1.7,0.9-2.9,2.5-3.6c1.9-0.9,3.9-0.8,5.9-0.3c2,0.5,4,1.2,6,1.4c2.4,0.3,4.5-0.7,5.4-2.5c1-2,0.6-4.3-1.1-6.1
		c-1.3-1.3-2.8-2.2-4.5-2.7c-5.4-1.7-10.9-1.8-16.3,0.2c-3.7,1.4-6.6,3.7-8.5,7.2c-4.4,7.9-1.7,16.3,6.5,20c2,0.9,4.1,1.6,6.2,2.3
		c2,0.6,4.1,1.2,5.9,2.2c2.6,1.4,3.6,3.6,3,6.1c-0.6,2.4-2.8,4-5.6,4.1c-2.8,0.1-5.4-0.7-8-1.5c-1.7-0.5-3.3-1.2-5.1-1
		c-2.3,0.1-4.1,1-5,3.2c-0.9,2.1-0.3,4,1.6,5.8c1.1,1.1,2.5,1.8,3.9,2.4C89.5,120.8,93.1,121.3,97.3,121.4z M120.6,93.6
		c0,3.7,0.4,6.7,1.2,9.6c5,18.3,23.3,20.8,34.2,16.2c2.2-0.9,4.1-2.2,5.3-4.3c1.2-2,1-4.2-0.4-5.9c-1.4-1.8-3.2-2.3-5.6-1.5
		c-1.6,0.5-3.2,1.2-4.8,1.6c-7.9,2.3-14.6-1.6-16.6-9.5c-0.9-3.8-0.9-7.6,0.2-11.4c2.1-7.7,8.1-11.2,15.8-9.3
		c1.7,0.4,3.4,0.9,5.2,1.3c2.3,0.5,4.4-0.4,5.5-2.4c1.2-1.9,1-4.2-0.6-6c-1.3-1.6-3.1-2.7-5-3.3c-8.6-3-16.8-2.2-24.1,3.2
		C123.5,77.4,120.8,85.3,120.6,93.6z M49.9,94.2C49.9,94.2,49.9,94.2,49.9,94.2c0,6.3,0,12.6,0,18.9c0,4.7,1.8,6.5,6.5,6.8
		c0.1,0,0.3,0,0.4,0c5.2,0,10.4,0,15.6,0c1.4,0,2.9-0.2,4.2-0.8c2.5-1,3.7-3.2,3.1-5.8c-0.5-2.4-2.4-3.8-5.6-4.1
		c-3.6-0.4-7.2-0.2-10.8-0.2c-1.4,0-1.8-0.4-1.8-1.8c0.1-10.1,0-20.2,0-30.3c0-1.8-0.1-3.6-0.7-5.3c-0.8-2.5-2.6-3.7-5.2-3.7
		c-2.6,0-4.4,1.2-5.3,3.7c-0.5,1.5-0.7,3.1-0.7,4.7C49.9,82.3,49.9,88.3,49.9,94.2z M58.6,147c5.2,2.8,9.4,6.9,14.3,10
		c1.3,0.8,2.7,1.5,4.2,1.9c1.4,0.3,2.8,0.3,4.1-0.4c0.7-0.4,0.9-0.7,0.1-1.3c-2.4-1.7-4.8-3.6-6.1-6.2c-1.5-2.9-3.5-3.6-6.5-3.3
		C65.3,147.9,62,147.3,58.6,147z"/>
	<path class="st0" d="M178.9,120.8c2.5,1.1,4.4,2.4,5.6,4.6c1.4,2.5,1.2,7.6-1.3,10.1c-3.1,3-6,6.1-9.1,9.1
		c-2.7,2.6-6.3,3.2-9.5,1.8c-3.4-1.6-5.4-4.7-5.2-8.4c0.1-2.1,1.1-4,2.5-5.5c3-3,6-6,9-9c1.8-1.7,3.8-2.4,7.3-2.6
		c-1.1-0.5-2-0.8-2.9-1.2c-6-2.9-9.5-7.7-10.8-14.2c-1.2-6.2-0.2-11.9,3.3-17.2c3.6-5.6,10.4-8.5,16.9-7.3c1.8,0.3,3.4,1.2,4.7,2.6
		c0.8,0.8,1.4,0.9,2.2-0.1c1-1.2,2.1-2.3,3.7-2.5c3.1-0.4,6,1.9,6,5.2c0.1,9.8,0.1,19.5,0,29.3c0,2.3-1.7,4.4-3.9,5
		c-2.2,0.6-4.3-0.1-5.8-2.1c-1.1-1.5-1.1-1.5-2.5-0.3c-2.2,2-4.9,2.8-7.8,3C180.7,120.8,180,120.8,178.9,120.8z M190.3,100.6
		c0.1-2.1-0.4-4.1-1.5-5.9c-2.7-4.4-8.6-4.4-11.4-0.1c-2.2,3.4-2.1,9,0.2,12.3c2.8,4,8.4,3.9,11-0.2
		C189.8,104.9,190.3,102.8,190.3,100.6z"/>
	<path class="st0" d="M253.6,108.1c0-6.4,0-12.9,0-19.3c0-1.5,0.2-3,0.7-4.4c1.4-3.9,5.7-4.9,8.7-2c1.7,1.6,1.8,1.7,3.7,0.4
		c4.8-3.5,13.4-2.5,18,1.9c4.2,4,6.2,8.8,6.4,14.6c0.2,5.3-0.9,10.1-3.9,14.5c-3.7,5.3-11.4,9.3-18.3,6.4c-0.9-0.4-1.8-0.9-2.6-1.5
		c-0.9-0.6-1.3-0.5-1.3,0.7c0,2.5,0,5,0,7.5c0,1.6-0.2,3.2-0.5,4.7c-0.5,2.3-2.1,3.9-4,4c-3.3,0.2-4.8,0-6.1-3.4
		c-0.6-1.4-0.7-2.9-0.7-4.4C253.6,121.2,253.6,114.6,253.6,108.1z M279.6,100.7c0.1-2.2-0.3-4.2-1.5-6.1c-1.4-2.3-3.3-3.6-6-3.6
		c-2.7,0-4.7,1.4-5.9,3.7c-2,4-2,8.1,0.1,12c1.2,2.3,3.2,3.5,5.9,3.6c2.7,0,4.7-1.3,6-3.6C279.2,104.9,279.6,102.9,279.6,100.7z"/>
	<path class="st0" d="M221.5,118.1c-0.3,1.2-0.4,2.2-0.4,3.3c0,2.9,0.2,5.8-0.1,8.7c-0.4,4.5-3.1,6.2-7.2,5.4
		c-1.9-0.4-3.4-2.6-3.6-4.9c0-0.7,0-1.4,0-2.2c0-13.4,0-26.8,0-40.3c0-1,0-2,0.2-2.9c0.5-2.2,1.7-3.8,4-4.3c2.2-0.5,4,0.3,5.5,2
		c1.3,1.4,1.3,1.4,2.7,0.2c1.7-1.4,3.7-2.1,5.9-2.4c10.6-1.2,16.9,7.1,18.5,14.2c1.6,7.3,0.5,14.1-4.4,19.9c-3.3,4.1-7.6,6.4-13,6.2
		C226.6,121,224.1,119.6,221.5,118.1z M236,101.1c0-3.1-0.6-5.3-1.9-7.1c-3-4.1-8.7-4-11.2,0.4c-2.5,4.2-2.4,8.7,0.1,12.9
		c2.6,4.3,8.4,4.2,11.2,0.1C235.5,105.4,236,103.2,236,101.1z"/>
	<path class="st0" d="M92.8,184c-2.2,0-4.4-0.1-6.6,0c-3.4,0.1-5.5-1.6-7.1-4.3c-1.7-2.9-1.6-5.8,0.3-8.6c1.6-2.5,3.9-4,7.1-3.9
		c4.3,0.1,8.6,0,13,0.1c3.9,0,6.9,2.2,8.1,5.8c1.1,3.2-0.1,7-3,9.3c-1.4,1.1-2.8,1.7-4.6,1.6C97.5,184,95.2,184,92.8,184z"/>
	<path class="st1" d="M97.3,121.4c-4.2-0.1-7.8-0.6-11.2-2.1c-1.4-0.6-2.8-1.4-3.9-2.4c-1.9-1.8-2.4-3.7-1.6-5.8
		c0.9-2.3,2.8-3.1,5-3.2c1.8-0.1,3.4,0.5,5.1,1c2.6,0.8,5.2,1.6,8,1.5c2.8-0.1,5-1.6,5.6-4.1c0.6-2.5-0.4-4.7-3-6.1
		c-1.9-1-3.9-1.6-5.9-2.2c-2.1-0.6-4.2-1.4-6.2-2.3c-8.1-3.8-10.8-12.2-6.5-20c1.9-3.5,4.9-5.8,8.5-7.2c5.4-2,10.8-2,16.3-0.2
		c1.7,0.5,3.3,1.4,4.5,2.7c1.7,1.8,2.1,4.1,1.1,6.1c-0.9,1.8-3,2.8-5.4,2.5c-2.1-0.2-4-1-6-1.4c-2-0.5-4-0.6-5.9,0.3
		c-1.5,0.7-2.4,1.9-2.5,3.6c-0.1,1.7,0.8,2.9,2.3,3.7c2,1,4.2,1.6,6.4,2.3c2.6,0.9,5.1,1.9,7.5,3.2c10.3,5.7,8.5,18.4,3.3,23.9
		C108.5,119.9,102.9,121.3,97.3,121.4z"/>
	<path class="st1" d="M120.6,93.6c0.2-8.3,2.9-16.2,10.4-21.6c7.4-5.4,15.6-6.2,24.1-3.2c1.9,0.7,3.6,1.7,5,3.3
		c1.5,1.8,1.7,4.1,0.6,6c-1.2,2-3.2,2.9-5.5,2.4c-1.7-0.4-3.4-0.9-5.2-1.3c-7.7-1.9-13.7,1.6-15.8,9.3c-1,3.8-1.1,7.6-0.2,11.4
		c1.9,7.9,8.7,11.8,16.6,9.5c1.6-0.5,3.2-1.1,4.8-1.6c2.4-0.8,4.1-0.3,5.6,1.5c1.4,1.7,1.5,3.9,0.4,5.9c-1.2,2.1-3.1,3.4-5.3,4.3
		c-10.9,4.6-29.2,2.1-34.2-16.2C121,100.3,120.7,97.3,120.6,93.6z"/>
	<path class="st1" d="M49.9,94.2c0-6,0-11.9,0-17.9c0-1.6,0.1-3.2,0.7-4.7c0.8-2.5,2.6-3.7,5.3-3.7c2.6,0,4.4,1.3,5.2,3.7
		c0.6,1.7,0.7,3.5,0.7,5.3c0,10.1,0,20.2,0,30.3c0,1.4,0.4,1.8,1.8,1.8c3.6,0,7.2-0.2,10.8,0.2c3.2,0.3,5.1,1.7,5.6,4.1
		c0.6,2.6-0.6,4.8-3.1,5.8c-1.4,0.5-2.8,0.8-4.2,0.8c-5.2,0-10.4,0-15.6,0c-0.1,0-0.3,0-0.4,0c-4.7-0.3-6.5-2.1-6.5-6.8
		C49.9,106.8,49.9,100.5,49.9,94.2C49.9,94.2,49.9,94.2,49.9,94.2z"/>
</g>
</svg>
