<?xml version="1.0" encoding="utf-8"?>
<!-- Generator: Adobe Illustrator 23.0.2, SVG Export Plug-In . SVG Version: 6.00 Build 0)  -->
<svg version="1.1" id="Capa_1" xmlns="http://www.w3.org/2000/svg" xmlns:xlink="http://www.w3.org/1999/xlink" x="0px" y="0px"
	 viewBox="0 0 40 40" style="enable-background:new 0 0 40 40;" xml:space="preserve">
<style type="text/css">
	.st0{fill:#C1B0B5;}
	.st1{fill:#F3EFF0;}
	.st2{fill:#FF7B79;}
	.st3{fill:#D8EC84;}
</style>
<g>
	<g>
		<path class="st0" d="M25.3,36H14.8l-2.2,3.1h14.9L25.3,36z"/>
		<path class="st1" d="M20,6.1c0,0-10.2,7.9-14,10.8v16h28v-16L20,6.1z"/>
		<path class="st2" d="M20,6.1L4.6,18c-0.4,0.4-1,0.5-1.6,0.5c-1.2-0.1-1.8-0.8-2-1.8c-0.2-1,0.2-1.9,0.9-2.4l16.8-13
			c0.8-0.6,2-0.6,2.8,0c10.9,8.4-1.6-1.2,16.8,12.9c0.6,0.4,0.9,1.1,0.9,1.9c0,1.3-1,2.4-2.4,2.4c-0.5,0-1-0.2-1.4-0.5
			C34.8,17.4,20.7,6.6,20,6.1z"/>
		<path class="st3" d="M34.1,29.8c1.9,0.2,3.3,1.6,3.5,3.5c1,0.5,1.6,1.6,1.6,2.7c0,1.7-1.4,3.1-3.1,3.1c-1.8,0-4.9,0-8.6,0
			c-1.3,0-2.4-1-2.4-2.4c0-1,0.6-1.9,1.6-2.2c-0.1-1.8,1.4-3.3,3.1-3.3c0.2,0,0.5,0,0.7,0.1C31.4,30.3,32.7,29.7,34.1,29.8z"/>
		<path class="st0" d="M34.1,0.9V11l0,0l-4.7-3.6V0.9H34.1z"/>
		<path class="st2" d="M23.1,16.9c1.8,0,3.1,1.6,3.1,3.4c0,2.6-2.6,4.3-6.2,7.5c-3.7-3.2-6.2-4.9-6.2-7.5c0-1.8,1.3-3.4,3.1-3.4
			c2.4,0,3.1,2.7,3.1,2.7S20.8,16.9,23.1,16.9L23.1,16.9z"/>
		<path class="st3" d="M14.9,36.8c0,1.3-1,2.4-2.4,2.4c-3.7,0-6.8,0-8.6,0c-1.7,0-3.1-1.4-3.1-3.1c0-1.2,0.6-2.2,1.6-2.7
			C2.6,31.4,4.2,30,6,29.8c1.3-0.1,2.7,0.5,3.5,1.6c0.2,0,0.5-0.1,0.7-0.1c1.7,0,3.1,1.4,3.1,3.1c0,0,0,0.1,0,0.1
			C14.2,34.9,14.9,35.8,14.9,36.8L14.9,36.8z"/>
	</g>
	<g>
		<path d="M16.9,16.1c-2.3,0-3.9,1.9-3.9,4.2c0,2.5,2,4.2,4.9,6.7c0.5,0.4,1,0.9,1.6,1.4c0.2,0.1,0.3,0.2,0.5,0.2s0.4-0.1,0.5-0.2
			c0.6-0.5,1.1-1,1.6-1.4c2.9-2.5,4.9-4.1,4.9-6.7c0-2.3-1.6-4.2-3.9-4.2c-1.6,0-2.5,0.9-3.1,1.8C19.4,17,18.5,16.1,16.9,16.1
			L16.9,16.1z M20.8,19.8c0,0,0.6-2.2,2.4-2.2c1.3,0,2.4,1.1,2.4,2.6c0,1.8-1.6,3.2-4.3,5.5c-0.4,0.3-0.7,0.6-1.1,1
			c-0.4-0.3-0.8-0.6-1.1-1c-2.7-2.3-4.3-3.7-4.3-5.5c0-1.5,1-2.6,2.4-2.6c1.7,0,2.4,2.1,2.4,2.2c0.1,0.3,0.4,0.6,0.8,0.6
			C20.4,20.4,20.7,20.2,20.8,19.8L20.8,19.8z"/>
		<circle cx="9.9" cy="8" r="0.8"/>
		<path d="M35,18.6c0.6,0.4,1.2,0.6,1.9,0.6c1.7,0,3.1-1.4,3.1-3.1c0-1-0.4-1.9-1.2-2.5l-3.9-3V0.9c0-0.4-0.4-0.8-0.8-0.8h-4.7
			c-0.4,0-0.8,0.4-0.8,0.8v5l-6.7-5.1c-0.6-0.4-1.2-0.6-1.9-0.6s-1.4,0.2-1.9,0.6l-5.9,4.5c-0.4,0.3-0.4,0.8-0.2,1.1
			c0.3,0.4,0.8,0.4,1.1,0.2l5.9-4.5c0.3-0.2,0.6-0.3,1-0.3s0.7,0.1,1,0.3l16.8,12.9c0.4,0.3,0.6,0.8,0.6,1.2c0,0.9-0.7,1.6-1.6,1.6
			c-0.4,0-0.7-0.1-1-0.3C35,16.7,21.2,6,20.5,5.5c-0.3-0.2-0.6-0.2-0.9,0c0,0-15.4,11.9-15.4,11.9c-0.3,0.2-0.7,0.4-1.1,0.3
			c-0.8-0.1-1.2-0.4-1.4-1.2c-0.2-0.6,0.1-1.2,0.6-1.6l5.3-4.1C7.9,10.5,8,10,7.7,9.7S7,9.3,6.7,9.6l-5.3,4.1c-1,0.8-1.4,2-1.2,3.2
			c0.3,1.4,1.3,2.3,2.7,2.4c0.8,0.1,1.6-0.2,2.2-0.6l0,0c0,0,0.1,0,0.1-0.1v10.7C3.4,29.6,2,31,1.7,32.9c-1,0.7-1.6,1.9-1.6,3.1
			c0,2.2,1.8,3.9,3.9,3.9h32.1c2.2,0,3.9-1.8,3.9-3.9c0-1.3-0.6-2.4-1.6-3.1c-0.4-1.8-1.8-3.3-3.5-3.7V18.5L35,18.6z M30.2,1.6h3.1
			v7.8L30.2,7V1.6z M12.6,38.4H4c-1.3,0-2.4-1-2.4-2.4c0-0.8,0.5-1.6,1.2-2c0.2-0.1,0.4-0.4,0.4-0.6c0.2-1.6,1.5-2.8,3.1-2.8
			c1,0,2,0.5,2.6,1.3c0.2,0.2,0.5,0.4,0.8,0.3c0.2,0,0.4-0.1,0.6-0.1c1.3,0,2.3,1,2.4,2.3c-0.1,0.5,0.2,0.8,0.5,0.9
			c0.6,0.2,1,0.8,1,1.5C14.1,37.7,13.4,38.4,12.6,38.4z M26,34.1c-0.5,0.3-0.9,0.7-1.2,1.2h-9.6c-0.3-0.5-0.7-0.9-1.2-1.2
			c0-0.2,0-0.3-0.1-0.4h12C26,33.8,26,34,26,34.1z M15.2,38.4c0.3-0.4,0.4-1,0.4-1.6h8.7c0,0.6,0.2,1.1,0.4,1.6H15.2z M36.8,33.4
			c0,0.2,0.2,0.5,0.4,0.6c0.8,0.4,1.2,1.2,1.2,2c0,1.3-1,2.4-2.4,2.4h-8.5c-0.9,0-1.6-0.7-1.6-1.6c0-0.7,0.4-1.2,1-1.5
			c0.3-0.1,0.6-0.4,0.5-0.9c0-1.3,1.1-2.3,2.4-2.3c0.2,0,0.4,0,0.6,0.1c0.3,0.1,0.6,0,0.8-0.3c0.6-0.8,1.6-1.3,2.6-1.3
			C35.3,30.6,36.7,31.8,36.8,33.4L36.8,33.4z M33.3,29c-1.2,0.1-2.2,0.7-3,1.6c-0.1,0-0.3,0-0.4,0c-1.2,0-2.4,0.6-3.1,1.6H13.3
			c-0.7-1-1.9-1.6-3.1-1.6c-0.1,0-0.3,0-0.4,0c-0.8-0.9-1.9-1.4-3-1.6V17.3C7.9,16.4,18.7,8.1,20,7.1l13.2,10.2V29z"/>
	</g>
</g>
</svg>
