<?xml version="1.0" encoding="utf-8"?>
<!-- Generator: Adobe Illustrator 23.0.2, SVG Export Plug-In . SVG Version: 6.00 Build 0)  -->
<svg version="1.1" id="Layer_1" xmlns="http://www.w3.org/2000/svg" xmlns:xlink="http://www.w3.org/1999/xlink" x="0px" y="0px"
	 viewBox="0 0 40 40" style="enable-background:new 0 0 40 40;" xml:space="preserve">
<style type="text/css">
	.st0{fill:#85BF4F;}
	.st1{fill:#FFCD85;}
	.st2{fill:#000003;}
</style>
<g>
	<path class="st0" d="M29,16.2L18.6,26.5c-0.7,0.7-1.9,0.7-2.7,0l-5-5c-0.7-0.7-0.7-1.9,0-2.7c0.7-0.7,1.9-0.7,2.7,0l3.6,3.6l9-9
		c0.7-0.7,1.9-0.7,2.7,0C29.7,14.2,29.7,15.4,29,16.2L29,16.2z M20,0.8c-5.1,3-10.5,5.3-16.2,6.9v8.6c0,16.1,13.9,22.8,16.2,22.8
		c2.3,0,16.2-6.7,16.2-22.8V7.7C30.8,6.2,25.1,3.8,20,0.8z"/>
	<path class="st1" d="M18.6,26.5L29,16.2c0.7-0.7,0.7-1.9,0-2.7c-0.7-0.7-1.9-0.7-2.7,0l-9,9l-3.6-3.6c-0.7-0.7-1.9-0.7-2.7,0
		c-0.7,0.7-0.7,1.9,0,2.7l5,5C16.7,27.3,17.9,27.3,18.6,26.5z"/>
</g>
<g>
	<path class="st2" d="M36.4,6.9c-5.5-1.5-11-3.9-16-6.8c-0.3-0.2-0.6-0.2-0.9,0c-5.1,3-10.3,5.2-16,6.8C3.2,7,2.9,7.3,2.9,7.7v8.6
		c0,8.9,4.1,14.7,7.5,18.1c3.7,3.6,8,5.6,9.5,5.6c1.6,0,5.9-2,9.5-5.6c3.4-3.4,7.5-9.2,7.5-18.1V7.7C37.1,7.3,36.8,7,36.4,6.9z
		 M35.4,16.3c0,8.3-3.8,13.7-7,16.9c-3.6,3.6-7.5,5.1-8.4,5.1c-0.9,0-4.7-1.6-8.4-5.1c-3.2-3.1-7-8.6-7-16.9v-8
		C10,6.8,15.1,4.7,20,1.8c4.8,2.8,10.1,5,15.4,6.5V16.3z"/>
	<path class="st2" d="M12.5,8.3c-0.2-0.4-0.7-0.6-1.1-0.5c-1.5,0.6-3,1.1-4.6,1.6c-0.4,0.1-0.6,0.4-0.6,0.8v3.2
		c0,0.5,0.4,0.8,0.8,0.8c0.5,0,0.8-0.4,0.8-0.8v-2.6c1.4-0.4,2.8-0.9,4.1-1.5C12.5,9.2,12.7,8.7,12.5,8.3z"/>
	<path class="st2" d="M14.1,8.4c0.1,0,0.2,0,0.3-0.1l0,0c0.4-0.2,0.6-0.7,0.4-1.1c-0.2-0.4-0.7-0.6-1.1-0.4l0,0
		c-0.4,0.2-0.6,0.7-0.4,1.1C13.5,8.2,13.8,8.4,14.1,8.4z"/>
	<path class="st2" d="M30,27.1c-0.4-0.3-0.9-0.1-1.2,0.2c-0.7,1.1-1.5,2.1-2.4,3c-0.7,0.8-1.6,1.5-2.4,2.1c-0.4,0.3-0.4,0.8-0.2,1.2
		c0.2,0.2,0.4,0.3,0.7,0.3c0.2,0,0.4-0.1,0.5-0.2c0.9-0.7,1.8-1.5,2.6-2.3c1-1,1.9-2.1,2.6-3.3C30.5,27.9,30.4,27.4,30,27.1z"/>
	<path class="st2" d="M22.1,33.9L22.1,33.9c-0.5,0.3-0.6,0.8-0.4,1.2c0.2,0.3,0.4,0.4,0.7,0.4c0.1,0,0.3,0,0.4-0.1l0.1,0
		c0.4-0.2,0.5-0.8,0.3-1.2C23,33.8,22.5,33.6,22.1,33.9z"/>
	<path class="st2" d="M14.3,18.3c-0.5-0.5-1.2-0.8-1.9-0.8c-0.7,0-1.4,0.3-1.9,0.8c-1.1,1.1-1.1,2.8,0,3.9l5,5
		c0.5,0.5,1.2,0.8,1.9,0.8c0.7,0,1.4-0.3,1.9-0.8l10.4-10.4c1.1-1.1,1.1-2.8,0-3.9c-0.5-0.5-1.2-0.8-1.9-0.8c-0.7,0-1.4,0.3-1.9,0.8
		l-8.4,8.4L14.3,18.3z M26.9,14.1c0.2-0.2,0.5-0.3,0.7-0.3c0.3,0,0.5,0.1,0.7,0.3c0.4,0.4,0.4,1.1,0,1.5L18,25.9
		c-0.2,0.2-0.5,0.3-0.7,0.3c-0.3,0-0.5-0.1-0.7-0.3l-5-5c-0.4-0.4-0.4-1.1,0-1.5c0.2-0.2,0.5-0.3,0.7-0.3s0.5,0.1,0.7,0.3l3.6,3.6
		c0.2,0.2,0.4,0.2,0.6,0.2s0.4-0.1,0.6-0.2L26.9,14.1z"/>
</g>
</svg>
