<?xml version="1.0" encoding="utf-8"?>
<!-- Generator: Adobe Illustrator 23.0.2, SVG Export Plug-In . SVG Version: 6.00 Build 0)  -->
<svg version="1.1" id="Capa_1" xmlns="http://www.w3.org/2000/svg" xmlns:xlink="http://www.w3.org/1999/xlink" x="0px" y="0px"
	 viewBox="0 0 40 40" style="enable-background:new 0 0 40 40;" xml:space="preserve">
<style type="text/css">
	.st0{fill:#FFDAAE;}
	.st1{fill:#FF5A5A;}
	.st2{fill:#FF9D21;}
	.st3{fill:#96C8EB;}
	.st4{fill:#BF9A94;}
	.st5{fill:#000001;}
</style>
<g>
	<polygon class="st0" points="11.2,6.6 17.1,6.6 22.9,6.6 28.8,6.6 34.6,6.6 34.6,3.6 5.4,3.6 5.4,6.6 	"/>
	<path class="st1" d="M9,13.8l2.2-7.2H5.4l-3.7,7.2v1.8c0,2,1.6,3.7,3.7,3.7S9,17.7,9,15.7V13.8z"/>
	<path class="st2" d="M11.2,6.6L9,13.8v1.8c0,2,1.6,3.7,3.7,3.7s3.7-1.6,3.7-3.7v-1.8L17,6.6C17,6.6,11.2,6.6,11.2,6.6z"/>
	<path class="st1" d="M17.1,6.6l-0.7,7.2v1.8c0,2,1.6,3.7,3.7,3.7s3.7-1.6,3.7-3.7v-1.8l-0.7-7.2C22.9,6.6,17.1,6.6,17.1,6.6z"/>
	<path class="st2" d="M22.9,6.6l0.7,7.2v1.8c0,2,1.6,3.7,3.7,3.7s3.7-1.6,3.7-3.7v-1.8l-2.2-7.2C28.8,6.6,22.9,6.6,22.9,6.6z"/>
	<path class="st1" d="M28.8,6.6l2.2,7.2v1.8c0,2,1.6,3.7,3.7,3.7s3.7-1.6,3.7-3.7v-1.8l-3.7-7.2C34.7,6.6,28.8,6.6,28.8,6.6z"/>
	<path class="st0" d="M27.3,19.3c-2,0-3.7-1.6-3.7-3.7c0,2-1.6,3.7-3.7,3.7s-3.7-1.6-3.7-3.7c0,2-1.6,3.7-3.7,3.7S9,17.7,9,15.7
		c0,2-1.6,3.7-3.7,3.7v17.1h20.3v-3H8.3v-2.7V23H16h4.7h5h5.9v13.4h3V19.3c-2,0-3.7-1.6-3.7-3.7C31,17.7,29.3,19.3,27.3,19.3z"/>
	<polygon class="st3" points="25.7,23 20.7,23 16,23 8.3,23 8.3,30.7 8.3,33.4 25.7,33.4 25.7,29.7 	"/>
	<polygon class="st4" points="25.7,23 25.7,29.7 25.7,33.4 25.7,36.4 31.7,36.4 31.7,23 	"/>
</g>
<g>
	<path class="st5" d="M39,13.5l-3.6-7V3.6c0-0.4-0.3-0.8-0.8-0.8H5.4C5,2.9,4.6,3.2,4.6,3.6v2.8L1,13.5C1,13.6,1,13.7,1,13.8v1.8
		c0,2.2,1.6,4,3.7,4.3v15.6H3.9c-0.4,0-0.8,0.3-0.8,0.8c0,0.4,0.3,0.8,0.8,0.8h1.5l0,0h20.4h5.9h3h1.5c0.4,0,0.8-0.3,0.8-0.8
		c0-0.4-0.3-0.8-0.8-0.8h-0.8V20c2.1-0.3,3.7-2.2,3.7-4.3v-1.8C39,13.7,39,13.6,39,13.5z M6.1,4.4h27.8v1.5h-5.1h-5.9h-5.9h-5.9H6.1
		V4.4z M30.2,15.7c0,1.6-1.3,2.9-2.9,2.9c-1.6,0-2.9-1.3-2.9-2.9v-1.8c0,0,0,0,0-0.1l-0.6-6.4h4.5l2,6.6
		C30.2,13.9,30.2,15.7,30.2,15.7z M22.9,15.7c0,1.6-1.3,2.9-2.9,2.9c-1.6,0-2.9-1.3-2.9-2.9v-1.8l0.6-6.5h4.5l0.6,6.5L22.9,15.7
		L22.9,15.7z M15.6,13.8v1.8c0,1.6-1.3,2.9-2.9,2.9s-2.9-1.3-2.9-2.9v-1.7l2-6.6h4.5L15.6,13.8C15.6,13.8,15.6,13.8,15.6,13.8z
		 M2.4,15.7V14l3.4-6.7h4.4l-1.9,6.2c0,0.1,0,0.2,0,0.2v1.8c0,1.6-1.3,2.9-2.9,2.9C3.7,18.6,2.4,17.3,2.4,15.7z M6.1,20
		c1.2-0.2,2.2-0.9,2.9-1.9c0.8,1.2,2.1,1.9,3.7,1.9s2.9-0.8,3.7-1.9c0.8,1.2,2.1,1.9,3.7,1.9s2.9-0.8,3.7-1.9
		c0.8,1.2,2.1,1.9,3.7,1.9c1.5,0,2.9-0.8,3.7-1.9c0.6,1,1.7,1.7,2.9,1.9v15.6h-1.5V23c0-0.4-0.3-0.8-0.8-0.8h-5.9H8.3
		c-0.4,0-0.8,0.3-0.8,0.8v10.4c0,0.4,0.3,0.8,0.8,0.8H25v1.5H6.1V20z M9.1,31l7.2-7.2h2.6l-1.4,1.4c-0.3,0.3-0.3,0.8,0,1.1
		c0.2,0.2,0.3,0.2,0.5,0.2c0.2,0,0.4-0.1,0.5-0.2l2.5-2.5H25v8.9H9.1V31z M9.1,28.9v-5.1h5.1L9.1,28.9z M26.5,35.6v-2.2v-3h0.8
		c0.4,0,0.8-0.3,0.8-0.8s-0.3-0.8-0.8-0.8h-0.8v-5.1h4.5v11.9H26.5z M37.6,15.7c0,1.6-1.3,2.9-2.9,2.9c-1.6,0-2.9-1.3-2.9-2.9v-1.8
		c0-0.1,0-0.2,0-0.2l-1.9-6.2h4.4l3.4,6.7L37.6,15.7L37.6,15.7z"/>
	<path class="st5" d="M16,26.6L16,26.6c-0.3,0.3-0.3,0.8,0,1.1c0.2,0.2,0.3,0.2,0.5,0.2s0.4-0.1,0.5-0.2l0,0c0.3-0.3,0.3-0.8,0-1.1
		C16.8,26.4,16.3,26.4,16,26.6z"/>
	<path class="st5" d="M1.7,35.6L1.7,35.6C1.3,35.6,1,36,1,36.4c0,0.4,0.3,0.8,0.8,0.8l0,0c0.4,0,0.8-0.3,0.8-0.8
		C2.5,36,2.1,35.6,1.7,35.6z"/>
	<path class="st5" d="M38.3,35.6L38.3,35.6c-0.4,0-0.8,0.3-0.8,0.8c0,0.4,0.3,0.8,0.8,0.8l0,0c0.4,0,0.8-0.3,0.8-0.8
		C39,36,38.7,35.6,38.3,35.6z"/>
</g>
</svg>
