<?xml version="1.0" encoding="utf-8"?>
<!-- Generator: Adobe Illustrator 23.0.2, SVG Export Plug-In . SVG Version: 6.00 Build 0)  -->
<svg version="1.1" id="Layer_1" xmlns="http://www.w3.org/2000/svg" xmlns:xlink="http://www.w3.org/1999/xlink" x="0px" y="0px"
	 viewBox="0 0 40 40" style="enable-background:new 0 0 40 40;" xml:space="preserve">
<style type="text/css">
	.st0{fill:#29ABE2;}
</style>
<g>
	<path class="st0" d="M1.5,39.2c0-10.2,8.3-18.5,18.5-18.5s18.5,8.3,18.5,18.5H1.5L1.5,39.2z"/>
	<circle class="st0" cx="20" cy="10.7" r="9.9"/>
</g>
<path d="M33.7,25.5c-2.5-2.5-5.6-4.2-9-5.1c3.6-1.8,6-5.4,6-9.6C30.7,4.8,25.9,0,20,0S9.3,4.8,9.3,10.7c0,4.2,2.5,7.9,6,9.6
	c-3.4,0.8-6.5,2.6-9,5.1C2.7,29.2,0.7,34,0.7,39.2C0.7,39.6,1,40,1.5,40h37.1c0.4,0,0.8-0.4,0.8-0.8C39.4,34,37.4,29.2,33.7,25.5z
	 M10.9,10.7c0-5,4.1-9.1,9.1-9.1s9.1,4.1,9.1,9.1S25,19.8,20,19.8S10.9,15.8,10.9,10.7z M2.3,38.4C2.8,29,10.5,21.5,20,21.5
	S37.3,29,37.7,38.4H2.3z"/>
<path d="M5.1,36.4c-0.1,0-0.1,0-0.2,0c-0.4-0.1-0.7-0.6-0.6-1c1-4.2,3.7-7.8,7.4-10c0.4-0.2,0.9-0.1,1.1,0.3s0.1,0.9-0.3,1.1
	c-3.3,2-5.8,5.3-6.6,9C5.9,36.2,5.5,36.4,5.1,36.4z"/>
<path d="M16.5,25.1c-0.4,0-0.7-0.2-0.8-0.6c-0.1-0.4,0.2-0.9,0.6-1c1.2-0.3,2.5-0.4,3.8-0.4c0.4,0,0.8,0.4,0.8,0.8
	c0,0.4-0.4,0.8-0.8,0.8c-1.1,0-2.3,0.1-3.4,0.4C16.6,25.1,16.5,25.1,16.5,25.1z"/>
</svg>
